# xmcd CD database file
#
# Track frame offsets:
#	150
#	21557
#	38117
#	54752
#	79275
#
# Disc length: 1339 seconds
#
# Revision: 1
# Processed by: cddbd v1.5PL3 Copyright (c) Steve Scherf et al.
# Submitted via: CDex 1.51
#
DISCID=37053905
DTITLE=上戸彩 - Hello
DYEAR=2003
DGENRE=JPop
TTITLE0=Hello
TTITLE1=Hello -symphony modulation style- （CMリミックス バージョン）
TTITLE2=PUZZLE -New 80's remix-
TTITLE3=Pureness -under island style-
TTITLE4=Hello -instrumental-
EXTD=YEAR: 2003
EXTT0=
EXTT1=
EXTT2=
EXTT3=
EXTT4=
PLAYORDER=
